<svg data-logo="logo" xmlns="http://www.w3.org/2000/svg" viewBox="0 0 222 44">
        <g style="opacity: 1;" id="logogram" transform="translate(0, 2) rotate(0)"><path d="M40 13.4683C40.0001 10.7823 39.1891 8.1589 37.673 5.9417C36.1569 3.72451 34.0065 2.01688 31.5035 1.04252C29.0005 0.0681476 26.2615 -0.127534 23.6455 0.48109C21.0293 1.08971 18.658 2.47428 16.8421 4.45341H0V40H35.5601V23.3873C36.9557 22.139 38.0726 20.6104 38.8377 18.9012C39.6027 17.192 39.9988 15.3409 40 13.4683ZM33.1579 13.4683C33.1606 14.7553 32.7814 16.0143 32.0683 17.0858C31.3551 18.1572 30.3402 18.9931 29.1518 19.4874C27.9634 19.9819 26.6552 20.1127 25.3924 19.8631C24.1298 19.6137 22.9695 18.9953 22.0584 18.0861C21.1474 17.1769 20.5266 16.0179 20.2745 14.7557C20.0224 13.4936 20.1505 12.185 20.6424 10.9957C21.1343 9.80626 21.968 8.78957 23.0379 8.07423C24.108 7.35888 25.3661 6.97705 26.6532 6.97703C28.376 6.97703 30.0285 7.6605 31.2479 8.87745C32.4675 10.0944 33.1544 11.7455 33.1579 13.4683ZM28.7179 33.1579H6.84211V11.2955H13.5088C13.38 12.0128 13.3123 12.7397 13.3063 13.4683C13.31 17.007 14.7173 20.3997 17.2196 22.902C19.7217 25.4042 23.1144 26.8116 26.6532 26.8151C27.3451 26.8115 28.0355 26.7528 28.7179 26.6397V33.1579Z" fill="#FFFFFF"></path></g>
        <g style="opacity: 1;" id="logotype" transform="translate(46, 1)"><path fill="#ffffff" d="M24.51 34L8.31 34L8.31 8.54L13.52 8.54L13.52 29.68L24.51 29.68L24.51 34ZM34.25 34.38L34.25 34.38Q31.38 34.38 29.27 33.14Q27.17 31.90 26.04 29.68Q24.90 27.47 24.90 24.53L24.90 24.53Q24.90 21.56 26.04 19.35Q27.17 17.13 29.27 15.89Q31.38 14.65 34.25 14.65L34.25 14.65Q37.14 14.65 39.23 15.89Q41.32 17.13 42.46 19.35Q43.60 21.56 43.60 24.53L43.60 24.53Q43.60 27.47 42.46 29.68Q41.32 31.90 39.23 33.14Q37.14 34.38 34.25 34.38ZM34.25 30.34L34.25 30.34Q35.61 30.34 36.54 29.58Q37.46 28.82 37.92 27.50Q38.38 26.17 38.38 24.52L38.38 24.52Q38.38 22.82 37.92 21.51Q37.46 20.19 36.54 19.44Q35.61 18.69 34.25 18.69L34.25 18.69Q32.88 18.69 31.97 19.44Q31.05 20.19 30.59 21.51Q30.13 22.82 30.13 24.52L30.13 24.52Q30.13 26.17 30.59 27.50Q31.05 28.82 31.97 29.58Q32.88 30.34 34.25 30.34ZM53.37 41.55L53.37 41.55Q50.99 41.55 49.22 40.95Q47.44 40.34 46.33 39.28Q45.22 38.22 44.79 36.87L44.79 36.87L49.20 35.64Q49.44 36.17 49.94 36.67Q50.45 37.18 51.28 37.50Q52.12 37.83 53.35 37.83L53.35 37.83Q55.32 37.83 56.44 36.93Q57.56 36.03 57.56 34.14L57.56 34.14L57.56 30.62L57.16 30.62Q56.82 31.39 56.17 32.10Q55.52 32.82 54.47 33.27Q53.42 33.73 51.87 33.73L51.87 33.73Q49.71 33.73 47.95 32.72Q46.19 31.71 45.14 29.64Q44.09 27.57 44.09 24.41L44.09 24.41Q44.09 21.18 45.16 19.01Q46.23 16.84 47.99 15.75Q49.76 14.65 51.88 14.65L51.88 14.65Q53.49 14.65 54.58 15.19Q55.68 15.73 56.35 16.54Q57.03 17.35 57.37 18.11L57.37 18.11L57.59 18.11L57.59 14.89L62.63 14.89L62.63 33.85Q62.63 36.43 61.44 38.14Q60.26 39.86 58.17 40.71Q56.09 41.55 53.37 41.55ZM53.47 29.83L53.47 29.83Q54.79 29.83 55.70 29.18Q56.62 28.53 57.09 27.31Q57.57 26.09 57.57 24.38L57.57 24.38Q57.57 22.69 57.09 21.42Q56.62 20.16 55.70 19.46Q54.79 18.76 53.47 18.76L53.47 18.76Q52.12 18.76 51.21 19.48Q50.29 20.21 49.82 21.47Q49.35 22.74 49.35 24.38L49.35 24.38Q49.35 26.05 49.82 27.28Q50.29 28.50 51.22 29.16Q52.14 29.83 53.47 29.83ZM73.28 34.38L73.28 34.38Q70.41 34.38 68.30 33.14Q66.20 31.90 65.06 29.68Q63.93 27.47 63.93 24.53L63.93 24.53Q63.93 21.56 65.06 19.35Q66.20 17.13 68.30 15.89Q70.41 14.65 73.28 14.65L73.28 14.65Q76.16 14.65 78.26 15.89Q80.35 17.13 81.49 19.35Q82.62 21.56 82.62 24.53L82.62 24.53Q82.62 27.47 81.49 29.68Q80.35 31.90 78.26 33.14Q76.16 34.38 73.28 34.38ZM73.28 30.34L73.28 30.34Q74.64 30.34 75.57 29.58Q76.49 28.82 76.95 27.50Q77.41 26.17 77.41 24.52L77.41 24.52Q77.41 22.82 76.95 21.51Q76.49 20.19 75.57 19.44Q74.64 18.69 73.28 18.69L73.28 18.69Q71.91 18.69 71.00 19.44Q70.08 20.19 69.62 21.51Q69.16 22.82 69.16 24.52L69.16 24.52Q69.16 26.17 69.62 27.50Q70.08 28.82 71.00 29.58Q71.91 30.34 73.28 30.34ZM89.05 34L83.92 34L83.92 14.89L89.05 14.89L89.05 34ZM86.48 12.40L86.48 12.40Q85.32 12.40 84.50 11.63Q83.68 10.86 83.68 9.77L83.68 9.77Q83.68 8.67 84.50 7.90Q85.32 7.13 86.48 7.13L86.48 7.13Q87.65 7.13 88.48 7.90Q89.30 8.66 89.30 9.77L89.30 9.77Q89.30 10.86 88.48 11.63Q87.65 12.40 86.48 12.40ZM96.26 41.14L91.13 41.14L91.13 14.89L96.17 14.89L96.17 18.11L96.41 18.11Q96.77 17.35 97.43 16.55Q98.09 15.75 99.16 15.20Q100.24 14.65 101.86 14.65L101.86 14.65Q103.98 14.65 105.74 15.75Q107.50 16.84 108.55 19.03Q109.61 21.22 109.61 24.48L109.61 24.48Q109.61 27.66 108.58 29.86Q107.55 32.05 105.79 33.19Q104.03 34.32 101.83 34.32L101.83 34.32Q100.27 34.32 99.20 33.79Q98.12 33.27 97.45 32.49Q96.77 31.71 96.41 30.94L96.41 30.94L96.26 30.94L96.26 41.14ZM100.26 30.21L100.26 30.21Q101.59 30.21 102.50 29.47Q103.42 28.74 103.89 27.44Q104.36 26.14 104.36 24.46L104.36 24.46Q104.36 22.79 103.89 21.51Q103.42 20.23 102.51 19.49Q101.61 18.76 100.26 18.76L100.26 18.76Q98.94 18.76 98.02 19.47Q97.10 20.17 96.62 21.45Q96.14 22.72 96.14 24.46L96.14 24.46Q96.14 26.19 96.63 27.48Q97.11 28.77 98.04 29.49Q98.96 30.21 100.26 30.21ZM118.51 34.38L118.51 34.38Q116.20 34.38 114.42 33.72Q112.65 33.06 111.52 31.80Q110.39 30.55 110.06 28.77L110.06 28.77L114.83 27.95Q115.21 29.28 116.15 29.95Q117.09 30.62 118.66 30.62L118.66 30.62Q120.11 30.62 120.97 30.06Q121.82 29.51 121.82 28.65L121.82 28.65Q121.82 27.90 121.22 27.42Q120.61 26.94 119.36 26.69L119.36 26.69L116.06 26.00Q113.29 25.44 111.93 24.08Q110.56 22.72 110.56 20.58L110.56 20.58Q110.56 18.74 111.57 17.41Q112.58 16.09 114.37 15.37Q116.17 14.65 118.59 14.65L118.59 14.65Q120.85 14.65 122.51 15.28Q124.16 15.90 125.19 17.05Q126.21 18.19 126.56 19.75L126.56 19.75L122.01 20.55Q121.72 19.58 120.89 18.95Q120.06 18.33 118.66 18.33L118.66 18.33Q117.40 18.33 116.54 18.86Q115.69 19.39 115.69 20.26L115.69 20.26Q115.69 20.99 116.24 21.49Q116.80 21.99 118.15 22.26L118.15 22.26L121.58 22.94Q124.35 23.51 125.70 24.78Q127.05 26.05 127.05 28.10L127.05 28.10Q127.05 29.98 125.96 31.39Q124.86 32.80 122.94 33.59Q121.02 34.38 118.51 34.38ZM134.83 34.24L134.83 34.24Q132.84 34.24 131.36 33.38Q129.87 32.51 129.06 30.90Q128.25 29.28 128.25 27.04L128.25 27.04L128.25 14.89L133.37 14.89L133.37 26.16Q133.37 27.93 134.30 28.94Q135.22 29.95 136.83 29.95L136.83 29.95Q137.92 29.95 138.76 29.48Q139.59 29.01 140.06 28.11Q140.53 27.22 140.53 25.95L140.53 25.95L140.53 14.89L145.66 14.89L145.66 34L140.82 34L140.76 29.23L141.05 29.23Q140.29 31.64 138.75 32.94Q137.20 34.24 134.83 34.24ZM152.89 34L147.76 34L147.76 14.89L152.51 14.89L152.77 19.64L152.39 19.64Q152.84 17.88 153.70 16.77Q154.56 15.66 155.72 15.13Q156.89 14.60 158.17 14.60L158.17 14.60Q160.24 14.60 161.50 15.91Q162.77 17.22 163.36 19.95L163.36 19.95L162.77 19.95Q163.19 18.12 164.16 16.94Q165.12 15.75 166.45 15.18Q167.77 14.60 169.23 14.60L169.23 14.60Q170.99 14.60 172.36 15.37Q173.74 16.14 174.53 17.59Q175.33 19.03 175.33 21.11L175.33 21.11L175.33 34L170.20 34L170.20 22.09Q170.20 20.46 169.32 19.68Q168.44 18.89 167.16 18.89L167.16 18.89Q166.20 18.89 165.49 19.31Q164.78 19.73 164.40 20.48Q164.01 21.23 164.01 22.24L164.01 22.24L164.01 34L159.06 34L159.06 21.95Q159.06 20.55 158.23 19.72Q157.40 18.89 156.08 18.89L156.08 18.89Q155.18 18.89 154.45 19.30Q153.73 19.71 153.31 20.51Q152.89 21.30 152.89 22.45L152.89 22.45L152.89 34Z"></path></g>
        
      </svg>