<svg xmlns="http://www.w3.org/2000/svg" width="204" height="96.001" viewBox="0 0 204 96.001"><path d="M124.6,72.745c0,7.026-5.145,11.8-12.778,11.8H101.9V60.977h10.152c7.467,0,12.542,4.774,12.542,11.768m-6.281.065c0-4.068-2.656-6.823-6.389-6.823h-3.867V79.57h4.167c3.565,0,6.087-2.724,6.087-6.76Zm26.516,4.241h-12.64a4.08,4.08,0,0,0,4.133,3.2,6.026,6.026,0,0,0,4.267-1.848l3.125,3.125a10.183,10.183,0,0,1-7.932,3.231c-5.953,0-9.617-3.667-9.617-9.213,0-5.649,3.8-9.38,9.483-9.38,6.351,0,9.579,4.267,9.175,10.89m-5.775-3.19a3.242,3.242,0,0,0-3.363-3.5,3.768,3.768,0,0,0-3.631,3.5ZM159.759,83.6a9.995,9.995,0,0,1-4.909,1.227c-3.529.033-6.084-2.052-6.084-5.818V71.2h-2.521V67.231h2.521V62.189h5.949v5.042h4.708V71.2h-4.708v6.859c0,1.342.6,1.95,1.648,1.914a6.247,6.247,0,0,0,2.254-.6Zm21.153-8.168c0,5.613-3.966,9.315-9.952,9.315s-9.918-3.7-9.918-9.315,3.933-9.273,9.918-9.273,9.952,3.691,9.952,9.273M167.06,75.5c0,2.726,1.582,4.534,3.888,4.534s3.934-1.815,3.934-4.534-1.579-4.505-3.934-4.505-3.894,1.816-3.894,4.505Zm20.971-9.143,2.925,5.112,3.161-5.112h6.558l-5.75,8.877,6.154,9.312H194.2l-3.243-5.55-3.589,5.55h-6.58l6.185-9.312-5.785-8.877ZM120.057,5.235V10.32h-7.044V28.8h-6.168V10.315H99.852V5.23ZM133.84,10.38v5.487c-3.326-.335-5.546,1.142-5.848,3.664V28.8h-5.981V10.616h5.981V13.64a6.533,6.533,0,0,1,5.848-3.26m20.373.236V28.8H148.23V25.844a6.411,6.411,0,0,1-5.815,3.228c-3.933,0-6.487-2.723-6.487-6.957v-11.5h5.982V20.4a2.9,2.9,0,0,0,2.482,3.265,2.985,2.985,0,0,0,.443.026c2.118-.034,3.395-1.715,3.395-4.1V10.616ZM124.6,44.873c0,7.027-5.144,11.8-12.778,11.8H101.9V33.107h10.152c7.467,0,12.541,4.762,12.541,11.766m-6.281.067c0-4.066-2.656-6.823-6.389-6.823H108.06V51.7h4.167c3.565,0,6.088-2.726,6.088-6.76Zm25.5-.1V56.674h-5.88V54.618a6.568,6.568,0,0,1-5.48,2.319c-3.888,0-6.219-2.355-6.219-5.683,0-3.466,2.454-5.448,6.958-5.516h4.741v-.2c0-1.714-1.176-2.725-3.467-2.725a13.365,13.365,0,0,0-5.441,1.453l-1.648-4.036a20.031,20.031,0,0,1,8.471-1.982c5.01.009,7.935,2.429,7.965,6.6m-5.883,5.683v-1.6h-3.56c-1.681,0-2.521.6-2.521,1.884s.9,2.049,2.452,2.049a3.577,3.577,0,0,0,3.632-2.348Zm16.071,6.15h-5.983V31.733h5.983Zm10.894,0H158.92V31.733H164.9Zm20.91-11.833V56.679H179.93V54.618a6.576,6.576,0,0,1-5.48,2.319c-3.888,0-6.222-2.355-6.222-5.683,0-3.466,2.456-5.448,6.962-5.516h4.739v-.2c0-1.714-1.178-2.725-3.466-2.725a13.308,13.308,0,0,0-5.447,1.448l-1.648-4.036a20.069,20.069,0,0,1,8.475-1.983c5.009.01,7.932,2.43,7.968,6.6m-5.884,5.683V48.933h-3.565c-1.682,0-2.522.6-2.522,1.884s.9,2.049,2.456,2.049a3.576,3.576,0,0,0,3.631-2.348Zm16.266-8.134c-1.008,0-1.713.371-1.713,1.143,0,2.4,9.546,1.244,9.514,7.564,0,3.733-3.261,5.852-7.7,5.852a13.417,13.417,0,0,1-8.2-2.588l1.882-3.867a11.85,11.85,0,0,0,6.454,2.254c1.111,0,1.918-.368,1.918-1.111,0-2.485-9.38-1.244-9.38-7.528,0-3.8,3.2-5.884,7.466-5.884A14.76,14.76,0,0,1,204,40.336l-2.016,3.889a13.912,13.912,0,0,0-5.785-1.84M85.442,41.333l-.414-.7q-1.416,2.112-2.945,4.292a2.448,2.448,0,0,1-.147,1.128A13.11,13.11,0,0,0,81,51.273c-.02.065-.06.176-.089.26a6.117,6.117,0,0,0-.267.9c-.075.371-.123.722-.171,1.059-.021.159-.041.3-.065.461-.925.367-1.867.723-2.8,1.011a2.117,2.117,0,0,0-2.324-.856q-1.083,1.4-2.208,2.809a3.812,3.812,0,0,0,.183,1.116,4.48,4.48,0,0,0-1.334,1.42,2.457,2.457,0,0,1-.218.3c-.133.15-.257.3-.383.454a5.614,5.614,0,0,1-.82.875,7.255,7.255,0,0,1-1.494.8c-3.734,4.472-7.479,8.657-11.11,12.476A6.771,6.771,0,0,0,58.037,77a5.978,5.978,0,0,1,.068,2.154,8.971,8.971,0,0,0,.257,4.256,32.814,32.814,0,0,1-6.619-2.841q-1.627,1.578-3.209,3.032a3.7,3.7,0,0,0,.464.3,35.342,35.342,0,0,0,9.867,3.984,2.91,2.91,0,0,0,.574.057,4.193,4.193,0,0,0,2.976-1.388,3.6,3.6,0,0,0,.224-3.856,4.191,4.191,0,0,1-.361-2.892,10.19,10.19,0,0,0-.12-3.721c-.192-.859-.1-1.107.032-1.325a4.895,4.895,0,0,0,.683-3.424A7.229,7.229,0,0,0,64.586,68.5a2.906,2.906,0,0,0,1.589-.565,3.021,3.021,0,0,0,1.067-1.495,8.989,8.989,0,0,0,2.815-.422,11.439,11.439,0,0,0,2.91-1.495,8.657,8.657,0,0,0,1.6-1.6c.1-.125.209-.253.316-.376a6.525,6.525,0,0,0,.548-.743c.053-.08.123-.182.171-.248a3.934,3.934,0,0,0,1.794-2.2,4.355,4.355,0,0,0,.751-.147,43.722,43.722,0,0,0,4.621-1.653A3.046,3.046,0,0,0,84.451,55.2c.084-.4.133-.783.187-1.125.034-.26.068-.522.122-.78a1.522,1.522,0,0,1,.1-.3,4.556,4.556,0,0,0,.344-1.665,9.135,9.135,0,0,1,.614-3.661,8.142,8.142,0,0,0-.252-5.983,2.181,2.181,0,0,0-.134-.347M55.65,47.55,68.658,35.571,53.769,38.852,49.86,27.629,45.953,39.792l-13.275.322L43.141,47.56l-.7,1.773L39.489,56.8l-1.935,4.9-.194.49.293-.273L40.9,58.885l3.658-3.414,5.3-4.953,9.879,9.1.335-.392Zm5.588,18.016.631-.717q2.847-3.252,5.713-6.743c4.758-5.8,9.066-11.542,12.824-16.989q1.476-2.141,2.832-4.221c9.418-14.42,14.4-26.2,12.547-30.677A3.063,3.063,0,0,0,94.915,5c-2.738-2.243-9.536,1.005-18.248,8.052,4.516-2.97,8-4.158,9.8-3.067a2.065,2.065,0,0,1,.276.188,2.7,2.7,0,0,1,.837,1.333c.85,2.731-.858,8.177-4.52,15.161a3.573,3.573,0,0,0-2.656-2.88l-.221-.078a5.78,5.78,0,0,0-.948-.267,3.662,3.662,0,0,1-2.1-1.239,5.08,5.08,0,0,0-3.777-1.753c-.457.039-.96.036-1.5.033a10.021,10.021,0,0,0-5.04.934,5.33,5.33,0,0,0-4.357-.987,3.611,3.611,0,0,0-1.5.685,26.576,26.576,0,0,1-3.315-.8c-.086-.065-.229-.2-.332-.3s-.236-.222-.356-.324a3.9,3.9,0,0,0-2.666-.9,1.878,1.878,0,0,1-.3,0,21.444,21.444,0,0,1-3.32-.774l-.645-.188a4.461,4.461,0,0,0-2.968-1.467l-.126-.019c-.221-.036-.469-.1-.733-.158l-.392-.09c.133-3.213.245-6.463.351-9.613l.092-2.7V2.115A2.115,2.115,0,0,0,44.153,0H24.78a2.114,2.114,0,0,0-2.112,2.11V35.272H2.124A2.114,2.114,0,0,0,.192,38.266c.12.267.212.522.3.748a5.465,5.465,0,0,0,1.048,1.915c.968,1.051,2,2.04,2.991,2.991.35.336.7.666,1.041,1.012l1.273,1.237Q7.8,47.1,8.75,48.036c.416.412.844.768,1.257,1.112.933.781,1.519,1.3,1.733,1.969a5.045,5.045,0,0,0,.2.533l1.54,3.976a8.58,8.58,0,0,0,5.085,5.384,3.626,3.626,0,0,1,.488.356,9.314,9.314,0,0,0,.826.6,7.641,7.641,0,0,0,1.824.9,5.762,5.762,0,0,0,4.75,0,5.8,5.8,0,0,0,2.24-4.242,2.3,2.3,0,0,1,.332-.924,3.722,3.722,0,0,1,3.341-.69,10.19,10.19,0,0,1,1.367.912,14.308,14.308,0,0,0,2,1.3,2.191,2.191,0,0,1,.488.332L38,55.629c-.117-.068-.237-.133-.363-.2a10.484,10.484,0,0,1-1.4-.933,13.874,13.874,0,0,0-1.946-1.272A7.675,7.675,0,0,0,25.815,54.9a6.3,6.3,0,0,0-1.292,2.918,8.686,8.686,0,0,1-.323,1.3,8.192,8.192,0,0,1-1.256-.3,4.418,4.418,0,0,1-.829-.44c-.116-.075-.267-.2-.436-.328a5.908,5.908,0,0,0-1.614-1A4.447,4.447,0,0,1,17.409,54.1L15.84,50.06c-.016-.046-.036-.091-.055-.134s-.025-.061-.036-.093a8.506,8.506,0,0,0-3.056-3.941c-.359-.3-.7-.584-.985-.866-.642-.64-1.292-1.268-1.94-1.9L8.508,41.9c-.353-.347-.709-.688-1.066-1.032-.479-.464-.946-.9-1.4-1.362H24.771A2.113,2.113,0,0,0,26.885,37.4V4.227H42.024l-.072,2.117c-.108,3.354-.226,6.824-.375,10.231a3.171,3.171,0,0,0,2.744,3.546c.039,0,.077.009.116.012.243.032.52.1.816.167s.656.156,1.024.216l.133.024c.108.015.252.039.366.063A2.22,2.22,0,0,0,48.154,21.7c.455.12.9.251,1.364.383a25.162,25.162,0,0,0,3.993.9,6.3,6.3,0,0,0,.739.043h.123l.072.065a4.8,4.8,0,0,0,1.9,1.23,29,29,0,0,0,4.684,1.056,3.18,3.18,0,0,0,2.33-.778l.072-.057a.971.971,0,0,1,.933.337,2.855,2.855,0,0,0,4,.57c.037-.028.074-.057.11-.087a5.056,5.056,0,0,1,3.369-.667c.533,0,1.085,0,1.653-.033a2.175,2.175,0,0,1,.548.419,7.818,7.818,0,0,0,4.439,2.509,1.361,1.361,0,0,1,.25.084l.1.036c-.113,1.14-.179,2.369-.2,3.745,0,.934,0,1.867.026,2.794A200.96,200.96,0,0,1,63.7,54.909c-.358.436-.714.861-1.066,1.288l-.252.3c-.771.921-1.54,1.833-2.312,2.725l-.335.391C55.8,64.159,51.894,68.287,48.185,71.9a7.082,7.082,0,0,0-1.119-1.436c-.05-.078-.146-.275-.209-.407s-.143-.3-.217-.439a.407.407,0,0,0-.034-.1,3.566,3.566,0,0,0-.673-1.2,15.189,15.189,0,0,1-1.96-2.853l6.695-11.8-4.944,5.208-3.262,3.433-1.573,1.658-1.6,1.585a22.861,22.861,0,0,0,3.341,5.423,5.019,5.019,0,0,0,.267.622c.052.1.1.2.151.3a5.268,5.268,0,0,0,1.034,1.58,2.233,2.233,0,0,1,.751,1.6c-7.9,7.2-14.592,11.588-18.354,11.773a3.035,3.035,0,0,1-2.151-.58L24.3,86.24c-1.677-1.426-1.246-5.165.871-10.412-5.2,9.931-7.049,17.232-4.316,19.467a3.368,3.368,0,0,0,2.124.7c4.6.113,13.409-5.733,23.761-15.416q1.568-1.467,3.177-3.045c3.66-3.587,7.467-7.6,11.324-11.971" transform="translate(0)" fill="#fff"/></svg>